<svg width="164" height="58" viewBox="0 0 164 58" fill="none" xmlns="http://www.w3.org/2000/svg">
<rect x="1" y="1" width="162" height="56" rx="3" fill="#2C2521"/>
<rect x="1" y="1" width="162" height="56" rx="3" stroke="#FFFDF8" stroke-width="2"/>
<g clip-path="url(#clip0_2_183)">
<rect x="6" y="6" width="8" height="6" rx="1" fill="#FFFDF8"/>
<rect x="6" y="16" width="8" height="6" rx="1" fill="#FFFDF8"/>
<rect x="6" y="26" width="8" height="6" rx="1" fill="#FFFDF8"/>
<rect x="6" y="36" width="8" height="6" rx="1" fill="#FFFDF8"/>
<rect x="6" y="46" width="8" height="6" rx="1" fill="#FFFDF8"/>
</g>
<rect x="18" y="6" width="128" height="46" rx="2" fill="#FFFDF8"/>
<path d="M32.5 36H28.9V24.8H24.7V22H36.7V24.8H32.5V36ZM35.9008 33H39.5008V36H35.9008V33ZM57.1055 31C57.1055 32.4 56.7855 33.42 56.1455 34.06C55.5188 34.6867 54.5055 35 53.1055 35H50.7055V36.4H47.1055V35H44.7055C43.3055 35 42.2855 34.6867 41.6455 34.06C41.0188 33.42 40.7055 32.4 40.7055 31V27C40.7055 25.6 41.0188 24.5867 41.6455 23.96C42.2855 23.32 43.3055 23 44.7055 23H47.1055V21.6H50.7055V23H53.1055C54.5055 23 55.5188 23.32 56.1455 23.96C56.7855 24.5867 57.1055 25.6 57.1055 27V31ZM53.5055 27C53.5055 26.2 53.1055 25.8 52.3055 25.8H50.5055V32.2H52.3055C53.1055 32.2 53.5055 31.8 53.5055 31V27ZM44.3055 31C44.3055 31.8 44.7055 32.2 45.5055 32.2H47.3055V25.8H45.5055C44.7055 25.8 44.3055 26.2 44.3055 27V31ZM71.1031 36H67.5031V27.4L62.7031 36H58.9031V22H62.5031V30.6L67.3031 22H71.1031V36ZM77.7125 33.1C77.6458 34.06 77.3392 34.82 76.7925 35.38C76.2458 35.9267 75.5725 36.2 74.7725 36.2C73.9725 36.2 73.2192 36.1333 72.5125 36V33.3H73.4125C73.6658 33.3 73.8725 33.2133 74.0325 33.04C74.2058 32.8667 74.2992 32.6533 74.3125 32.4L74.9125 22H86.0125V36H82.4125V24.8H78.2125L77.7125 33.1ZM92.0148 26.8H96.8148C98.2148 26.8 99.2282 27.12 99.8548 27.76C100.495 28.3867 100.815 29.4 100.815 30.8V32C100.815 33.4 100.495 34.42 99.8548 35.06C99.2282 35.6867 98.2148 36 96.8148 36H88.4148V22H92.0148V26.8ZM97.2148 30.8C97.2148 30 96.8148 29.6 96.0148 29.6H92.0148V33.2H96.0148C96.8148 33.2 97.2148 32.8 97.2148 32V30.8ZM114.614 28.2L111.814 33.2H109.014L106.214 28.2V36H102.614V22H106.414L110.414 29.4L114.414 22H118.214V36H114.614V28.2ZM124.222 26.8H128.822C130.222 26.8 131.235 27.12 131.862 27.76C132.502 28.3867 132.822 29.4 132.822 30.8V32C132.822 33.4 132.502 34.42 131.862 35.06C131.235 35.6867 130.222 36 128.822 36H120.622V22H124.222V26.8ZM138.022 36H134.422V22H138.022V36ZM129.222 30.8C129.222 30 128.822 29.6 128.022 29.6H124.222V33.2H128.022C128.822 33.2 129.222 32.8 129.222 32V30.8Z" fill="#281A03"/>
<g clip-path="url(#clip1_2_183)">
<rect x="150" y="6" width="8" height="6" rx="1" fill="#FFFDF8"/>
<rect x="150" y="16" width="8" height="6" rx="1" fill="#FFFDF8"/>
<rect x="150" y="26" width="8" height="6" rx="1" fill="#FFFDF8"/>
<rect x="150" y="36" width="8" height="6" rx="1" fill="#FFFDF8"/>
<rect x="150" y="46" width="8" height="6" rx="1" fill="#FFFDF8"/>
</g>
<defs>
<clipPath id="clip0_2_183">
<rect width="8" height="46" fill="white" transform="translate(6 6)"/>
</clipPath>
<clipPath id="clip1_2_183">
<rect width="8" height="46" fill="white" transform="translate(150 6)"/>
</clipPath>
</defs>
</svg>
